<?xml version="1.0" encoding="UTF-8" standalone="no"?>
<svg width="50px" height="15px" viewBox="0 0 50 15" version="1.1" xmlns="http://www.w3.org/2000/svg" xmlns:xlink="http://www.w3.org/1999/xlink">
    <!-- Generator: Sketch 41 (35326) - http://www.bohemiancoding.com/sketch -->
    <title>Group</title>
    <desc>Created with Sketch.</desc>
    <defs></defs>
    <g id="Page-1" stroke="none" stroke-width="1" fill="none" fill-rule="evenodd">
        <g id="Mobile-Portrait" transform="translate(-155.000000, -41.000000)" fill="#000000">
            <g id="Group-4" transform="translate(0.000000, 20.000000)">
                <g id="Group" transform="translate(155.000000, 21.000000)">
                    <path d="M19.0654297,9.96484375 C18.7333968,10.3554707 18.3232446,10.6582021 17.8349609,10.8730469 C17.3466772,11.0878917 16.767256,11.1953125 16.0966797,11.1953125 C15.5758437,11.1953125 15.1022157,11.122071 14.6757812,10.9755859 C14.2493468,10.8291008 13.8831396,10.5979833 13.5771484,10.2822266 C13.2711573,9.96646978 13.0335295,9.5595728 12.8642578,9.06152344 C12.6949861,8.56347407 12.6103516,7.96614932 12.6103516,7.26953125 L12.6103516,0.43359375 L14.9833984,0.43359375 L14.9833984,7.2890625 C14.9833984,7.673179 15.0289709,7.99055864 15.1201172,8.24121094 C15.2112635,8.49186323 15.3333326,8.69368413 15.4863281,8.84667969 C15.6393237,8.99967524 15.8167308,9.10709604 16.0185547,9.16894531 C16.2203786,9.23079458 16.431965,9.26171875 16.6533203,9.26171875 C17.2653025,9.26171875 17.7600893,9.15104277 18.1376953,8.9296875 C18.5153014,8.70833223 18.7985017,8.40560088 18.9873047,8.02148438 L18.9873047,0.43359375 L21.3603516,0.43359375 L21.3603516,11 L19.1240234,11 L19.0654297,9.96484375 Z M26.3017578,11 L23.9287109,11 L23.9287109,0.43359375 L26.3017578,0.43359375 L26.3017578,11 Z M33.2255859,9.30078125 C33.5120457,9.30078125 33.7805977,9.25683638 34.03125,9.16894531 C34.2819023,9.08105425 34.4999991,8.95735757 34.6855469,8.79785156 C34.8710947,8.63834556 35.0208328,8.44791777 35.1347656,8.2265625 C35.2486985,8.00520723 35.3121744,7.76432422 35.3251953,7.50390625 L37.5615234,7.50390625 C37.5419921,8.01172129 37.4166678,8.49023213 37.1855469,8.93945312 C36.9544259,9.38867412 36.6451842,9.7809228 36.2578125,10.1162109 C35.8704408,10.4514991 35.4195989,10.7151683 34.9052734,10.9072266 C34.3909479,11.0992848 33.8408232,11.1953125 33.2548828,11.1953125 C32.4410767,11.1953125 31.7330759,11.0553399 31.1308594,10.7753906 C30.5286428,10.4954413 30.0273458,10.1145857 29.6269531,9.6328125 C29.2265605,9.15103926 28.9287119,8.58789385 28.7333984,7.94335938 C28.538085,7.2988249 28.4404297,6.61523799 28.4404297,5.89257812 L28.4404297,5.55078125 C28.4404297,4.82812139 28.538085,4.14453447 28.7333984,3.5 C28.9287119,2.85546553 29.2265605,2.29069253 29.6269531,1.80566406 C30.0273458,1.3206356 30.5270152,0.938152441 31.1259766,0.658203125 C31.7249379,0.378253809 32.431311,0.23828125 33.2451172,0.23828125 C33.8831412,0.23828125 34.4641901,0.335936523 34.9882812,0.53125 C35.5123724,0.726563477 35.9615867,0.999998242 36.3359375,1.3515625 C36.7102883,1.70312676 37.0032542,2.12304443 37.2148438,2.61132812 C37.4264333,3.09961182 37.5419921,3.63671582 37.5615234,4.22265625 L35.3251953,4.22265625 C35.3121744,3.94270693 35.2552088,3.67578252 35.1542969,3.421875 C35.0533849,3.16796748 34.9134124,2.94661553 34.734375,2.7578125 C34.5553376,2.56900947 34.3388685,2.41927139 34.0849609,2.30859375 C33.8310534,2.19791611 33.5445979,2.14257812 33.2255859,2.14257812 C32.7438127,2.14257812 32.3466812,2.24186099 32.0341797,2.44042969 C31.7216781,2.63899839 31.4742848,2.89778486 31.2919922,3.21679688 C31.1096996,3.53580889 30.9843753,3.90038857 30.9160156,4.31054688 C30.8476559,4.72070518 30.8134766,5.1341125 30.8134766,5.55078125 L30.8134766,5.89257812 C30.8134766,6.32226777 30.8476559,6.74055786 30.9160156,7.14746094 C30.9843753,7.55436401 31.1096996,7.91731611 31.2919922,8.23632812 C31.4742848,8.55534014 31.7200505,8.81249902 32.0292969,9.0078125 C32.3385432,9.20312598 32.7373022,9.30078125 33.2255859,9.30078125 Z" id="uic"></path>
                    <path d="M7.265625,0.419921875 L9.7265625,0.419921875 L9.7265625,10.390625 C9.7265625,11.0937535 9.61100376,11.7220024 9.37988281,12.2753906 C9.14876187,12.8287788 8.82649946,13.2942689 8.41308594,13.671875 C7.99967241,14.0494811 7.50976846,14.3375641 6.94335938,14.5361328 C6.37695029,14.7347015 5.75846689,14.8339844 5.08789062,14.8339844 C4.41080391,14.8339844 3.78743774,14.7493498 3.21777344,14.5800781 C2.64810913,14.4108064 2.15820518,14.1503924 1.74804688,13.7988281 C1.33788857,13.4472639 1.01725376,13.00456 0.786132812,12.4707031 C0.555011865,11.9368463 0.439453125,11.3085974 0.439453125,10.5859375 L2.90039062,10.5859375 C2.90039062,10.9960958 2.95410103,11.3460272 3.06152344,11.6357422 C3.16894585,11.9254572 3.31868394,12.1598298 3.51074219,12.3388672 C3.70280044,12.5179045 3.93229033,12.6497392 4.19921875,12.734375 C4.46614717,12.8190108 4.76236816,12.8613281 5.08789062,12.8613281 C5.40690264,12.8613281 5.69986846,12.8076177 5.96679688,12.7001953 C6.23372529,12.5927729 6.46321519,12.4348969 6.65527344,12.2265625 C6.84733169,12.0182281 6.99706978,11.7610692 7.10449219,11.4550781 C7.2119146,11.149087 7.265625,10.7942729 7.265625,10.390625 L7.265625,0.419921875 Z" id="J"></path>
                    <path d="M47.265625,0.419921875 L49.7265625,0.419921875 L49.7265625,10.390625 C49.7265625,11.0937535 49.6110038,11.7220024 49.3798828,12.2753906 C49.1487619,12.8287788 48.8264995,13.2942689 48.4130859,13.671875 C47.9996724,14.0494811 47.5097685,14.3375641 46.9433594,14.5361328 C46.3769503,14.7347015 45.7584669,14.8339844 45.0878906,14.8339844 C44.4108039,14.8339844 43.7874377,14.7493498 43.2177734,14.5800781 C42.6481091,14.4108064 42.1582052,14.1503924 41.7480469,13.7988281 C41.3378886,13.4472639 41.0172538,13.00456 40.7861328,12.4707031 C40.5550119,11.9368463 40.4394531,11.3085974 40.4394531,10.5859375 L42.9003906,10.5859375 C42.9003906,10.9960958 42.954101,11.3460272 43.0615234,11.6357422 C43.1689458,11.9254572 43.3186839,12.1598298 43.5107422,12.3388672 C43.7028004,12.5179045 43.9322903,12.6497392 44.1992188,12.734375 C44.4661472,12.8190108 44.7623682,12.8613281 45.0878906,12.8613281 C45.4069026,12.8613281 45.6998685,12.8076177 45.9667969,12.7001953 C46.2337253,12.5927729 46.4632152,12.4348969 46.6552734,12.2265625 C46.8473317,12.0182281 46.9970698,11.7610692 47.1044922,11.4550781 C47.2119146,11.149087 47.265625,10.7942729 47.265625,10.390625 L47.265625,0.419921875 Z" id="J" transform="translate(45.083008, 7.626953) rotate(-180.000000) translate(-45.083008, -7.626953) "></path>
                </g>
            </g>
        </g>
    </g>
</svg>